Coordinates
version=1
nRows=19
nColumns=24
inDegrees=yes

Units are S.I. units (second, meters, Newtons, ...)
Angles are in degrees.

endheader
time	pelvis_tilt	pelvis_list	pelvis_rotation	pelvis_tx	pelvis_ty	pelvis_tz	hip_flexion_r	hip_adduction_r	hip_rotation_r	knee_angle_r	ankle_angle_r	subtalar_angle_r	mtp_angle_r	hip_flexion_l	hip_adduction_l	hip_rotation_l	knee_angle_l	ankle_angle_l	subtalar_angle_l	mtp_angle_l	lumbar_extension	lumbar_bending	lumbar_rotation
      6.23000000	     40.06219150	      3.57270636	     -2.14284702	      0.68636504	      1.06920379	     -0.33128594	     33.50464103	    -11.84297127	      8.11824461	    -74.04995429	    -20.98768388	      0.00000000	      0.00000000	     26.51227923	    -13.31712877	     -6.89879440	    -69.23128428	    -13.80410951	      0.00000000	      0.00000000	      0.00000000	      0.00000000	      0.00000000
      6.24000000	     40.06841434	      3.57053052	     -2.14334375	      0.68637497	      1.06920069	     -0.33128443	     33.49682204	    -11.83869507	      8.10764759	    -74.05361024	    -20.98627675	      0.00000000	      0.00000000	     26.51423696	    -13.32951816	     -6.91113698	    -69.22146883	    -13.81844646	      0.00000000	      0.00000000	      0.00000000	      0.00000000	      0.00000000
      6.25000000	     40.07324303	      3.56862372	     -2.14394962	      0.68637888	      1.06920450	     -0.33127503	     33.48954441	    -11.83362214	      8.09968963	    -74.06044228	    -20.98411294	      0.00000000	      0.00000000	     26.51537963	    -13.34319449	     -6.92433750	    -69.21020973	    -13.83747337	      0.00000000	      0.00000000	      0.00000000	      0.00000000	      0.00000000
      6.26000000	     40.07501190	      3.56686342	     -2.14494391	      0.68637657	      1.06921171	     -0.33125894	     33.48323885	    -11.82715391	      8.09495817	    -74.06965492	    -20.97997628	      0.00000000	      0.00000000	     26.51329065	    -13.35433723	     -6.93504238	    -69.20143288	    -13.85753264	      0.00000000	      0.00000000	      0.00000000	      0.00000000	      0.00000000
      6.27000000	     40.07452243	      3.56528800	     -2.14680007	      0.68637872	      1.06921812	     -0.33124677	     33.47756063	    -11.82021223	      8.09389058	    -74.08139488	    -20.97266838	      0.00000000	      0.00000000	     26.50900396	    -13.36121627	     -6.94106359	    -69.19640475	    -13.87488537	      0.00000000	      0.00000000	      0.00000000	      0.00000000	      0.00000000
      6.28000000	     40.07365935	      3.56389957	     -2.14942026	      0.68638754	      1.06922151	     -0.33124355	     33.47221828	    -11.81480640	      8.09662926	    -74.09646125	    -20.96139885	      0.00000000	      0.00000000	     26.50510699	    -13.36430490	     -6.94186298	    -69.19445571	    -13.88674920	      0.00000000	      0.00000000	      0.00000000	      0.00000000	      0.00000000
      6.29000000	     40.07356593	      3.56266853	     -2.15200740	      0.68639596	      1.06922356	     -0.33124470	     33.46763205	    -11.81284279	      8.10276729	    -74.11559513	    -20.94618186	      0.00000000	      0.00000000	     26.50339453	    -13.36514169	     -6.93833575	    -69.19455483	    -13.89177553	      0.00000000	      0.00000000	      0.00000000	      0.00000000	      0.00000000
      6.30000000	     40.07395692	      3.56184551	     -2.15367819	      0.68639949	      1.06922421	     -0.33124818	     33.46483293	    -11.81487355	      8.11117786	    -74.13886025	    -20.92817207	      0.00000000	      0.00000000	     26.50418283	    -13.36504689	     -6.93224119	    -69.19602801	    -13.89006369	      0.00000000	      0.00000000	      0.00000000	      0.00000000	      0.00000000
      6.31000000	     40.07366208	      3.56180187	     -2.15410470	      0.68640047	      1.06921874	     -0.33125696	     33.46493628	    -11.81979613	      8.12041957	    -74.16548796	    -20.90985174	      0.00000000	      0.00000000	     26.50703194	    -13.36454198	     -6.92553164	    -69.19827143	    -13.88303275	      0.00000000	      0.00000000	      0.00000000	      0.00000000	      0.00000000
      6.32000000	     40.07155701	      3.56229564	     -2.15363129	      0.68640128	      1.06920576	     -0.33126693	     33.46864355	    -11.82575279	      8.12969196	    -74.19425340	    -20.89490580	      0.00000000	      0.00000000	     26.51161670	    -13.36372663	     -6.91972770	    -69.20029099	    -13.87336584	      0.00000000	      0.00000000	      0.00000000	      0.00000000	      0.00000000
      6.33000000	     40.06712505	      3.56234336	     -2.15304718	      0.68639825	      1.06918950	     -0.33126917	     33.47596180	    -11.83112421	      8.13936723	    -74.22402955	    -20.88760696	      0.00000000	      0.00000000	     26.51789145	    -13.36307471	     -6.91550733	    -69.20084318	    -13.86492538	      0.00000000	      0.00000000	      0.00000000	      0.00000000	      0.00000000
      6.34000000	     40.06055949	      3.56095428	     -2.15339433	      0.68638536	      1.06917324	     -0.33126388	     33.48610048	    -11.83484372	      8.15053745	    -74.25418164	    -20.89166264	      0.00000000	      0.00000000	     26.52568377	    -13.36372541	     -6.91275728	    -69.19928460	    -13.86230497	      0.00000000	      0.00000000	      0.00000000	      0.00000000	      0.00000000
      6.35000000	     40.05273010	      3.55768343	     -2.15576820	      0.68636496	      1.06916047	     -0.33125913	     33.49747016	    -11.83632633	      8.16408392	    -74.28469254	    -20.90867448	      0.00000000	      0.00000000	     26.53435107	    -13.36689711	     -6.91121631	    -69.19655577	    -13.86972135	      0.00000000	      0.00000000	      0.00000000	      0.00000000	      0.00000000
      6.36000000	     40.04515582	      3.55257570	     -2.16096343	      0.68635184	      1.06915727	     -0.33125916	     33.50782636	    -11.83555390	      8.18009905	    -74.31597120	    -20.93654814	      0.00000000	      0.00000000	     26.54277576	    -13.37310752	     -6.91128017	    -69.19541443	    -13.88922021	      0.00000000	      0.00000000	      0.00000000	      0.00000000	      0.00000000
      6.37000000	     40.03986799	      3.54602747	     -2.16914081	      0.68635976	      1.06916345	     -0.33126095	     33.51469047	    -11.83352903	      8.19814257	    -74.34837354	    -20.96835512	      0.00000000	      0.00000000	     26.54949992	    -13.38215861	     -6.91413136	    -69.19934520	    -13.91857607	      0.00000000	      0.00000000	      0.00000000	      0.00000000	      0.00000000
      6.38000000	     40.03916726	      3.53890954	     -2.17968919	      0.68638277	      1.06916601	     -0.33125929	     33.51614138	    -11.83264122	      8.21811461	    -74.38168748	    -20.99226593	      0.00000000	      0.00000000	     26.55276697	    -13.39386680	     -6.92084510	    -69.21028563	    -13.94967573	      0.00000000	      0.00000000	      0.00000000	      0.00000000	      0.00000000
      6.39000000	     40.04524517	      3.53274012	     -2.19123703	      0.68639749	      1.06914823	     -0.33125016	     33.51167032	    -11.83596161	      8.24086832	    -74.41510661	    -20.99317780	      0.00000000	      0.00000000	     26.55046752	    -13.40841359	     -6.93113884	    -69.22602712	    -13.96839386	      0.00000000	      0.00000000	      0.00000000	      0.00000000	      0.00000000
      6.40000000	     40.05920907	      3.52943043	     -2.20190254	      0.68639223	      1.06911582	     -0.33123157	     33.50225695	    -11.84482897	      8.26762160	    -74.44814961	    -20.95636641	      0.00000000	      0.00000000	     26.54017808	    -13.42494896	     -6.94304767	    -69.23883166	    -13.95683686	      0.00000000	      0.00000000	      0.00000000	      0.00000000	      0.00000000
      6.41000000	     40.07882657	      3.53010453	     -2.20991258	      0.68638599	      1.06911474	     -0.33120493	     33.48894033	    -11.85582396	      8.29818776	    -74.48228296	    -20.87276329	      0.00000000	      0.00000000	     26.51928568	    -13.43841538	     -6.95429110	    -69.23696227	    -13.89822217	      0.00000000	      0.00000000	      0.00000000	      0.00000000	      0.00000000
